ffmpeg version N-73165-gf1e1730 Copyright (c) 2000-2015 the FFmpeg developers
  built with gcc 4.9.2 (GCC)
  configuration: --enable-gpl --enable-version3 --disable-w32threads --enable-avisynth --enable-bzlib --enable-fontconfig --enable-frei0r --enable-gnutls --enable-iconv --enable-libass --enable-libbluray --enable-libbs2b --enable-libcaca --enable-libdcadec --enable-libfreetype --enable-libgme --enable-libgsm --enable-libilbc --enable-libmodplug --enable-libmp3lame --enable-libopencore-amrnb --enable-libopencore-amrwb --enable-libopenjpeg --enable-libopus --enable-librtmp --enable-libschroedinger --enable-libsoxr --enable-libspeex --enable-libtheora --enable-libtwolame --enable-libvidstab --enable-libvo-aacenc --enable-libvo-amrwbenc --enable-libvorbis --enable-libvpx --enable-libwavpack --enable-libwebp --enable-libx264 --enable-libx265 --enable-libxavs --enable-libxvid --enable-lzma --enable-decklink --enable-zlib
  libavutil      54. 27.100 / 54. 27.100
  libavcodec     56. 45.100 / 56. 45.100
  libavformat    56. 38.102 / 56. 38.102
  libavdevice    56.  4.100 / 56.  4.100
  libavfilter     5. 18.100 /  5. 18.100
  libswscale      3.  1.101 /  3.  1.101
  libswresample   1.  2.100 /  1.  2.100
  libpostproc    53.  3.100 / 53.  3.100
Input #0, rawvideo, from 'pipe:':
  Duration: N/A, start: 0.000000, bitrate: 165888 kb/s
    Stream #0:0: Video: rawvideo (RGB[24] / 0x18424752), rgb24, 640x360, 165888 kb/s, 30 tbr, 30 tbn, 30 tbc
[libx264 @ 0000000002f2bec0] using cpu capabilities: MMX2 SSE2Fast SSSE3 SSE4.2 AVX FMA3 AVX2 LZCNT BMI2
[libx264 @ 0000000002f2bec0] profile High, level 3.0
[libx264 @ 0000000002f2bec0] 264 - core 146 r2538 121396c - H.264/MPEG-4 AVC codec - Copyleft 2003-2015 - http://www.videolan.org/x264.html - options: cabac=1 ref=3 deblock=1:0:0 analyse=0x3:0x113 me=hex subme=7 psy=1 psy_rd=1.00:0.00 mixed_ref=1 me_range=16 chroma_me=1 trellis=1 8x8dct=1 cqm=0 deadzone=21,11 fast_pskip=1 chroma_qp_offset=-2 threads=12 lookahead_threads=2 sliced_threads=0 nr=0 decimate=1 interlaced=0 bluray_compat=0 constrained_intra=0 bframes=3 b_pyramid=2 b_adapt=1 b_bias=0 direct=1 weightb=1 open_gop=0 weightp=2 keyint=250 keyint_min=25 scenecut=40 intra_refresh=0 rc_lookahead=40 rc=crf mbtree=1 crf=15.0 qcomp=0.60 qpmin=0 qpmax=69 qpstep=4 ip_ratio=1.40 aq=1:1.00
Output #0, mp4, to 'C:\Users\Jonghwa\Desktop\ARDroneForRnE_For_Success\20151020212321.mp4':
  Metadata:
    comment         : Exported using VideoExport for Processing - https://github.com/hamoid/VideoExport-for-Processing
    encoder         : Lavf56.38.102
    Stream #0:0: Video: h264 (libx264) ([33][0][0][0] / 0x0021), yuv420p, 640x360, q=-1--1, 30 fps, 15360 tbn, 30 tbc
    Metadata:
      encoder         : Lavc56.45.100 libx264
Stream mapping:
  Stream #0:0 -> #0:0 (rawvideo (native) -> h264 (libx264))
frame=   13 fps=0.0 q=0.0 size=       0kB time=00:00:00.00 bitrate=N/A    frame=   23 fps= 22 q=0.0 size=       0kB time=00:00:00.00 bitrate=N/A    frame=   33 fps= 20 q=0.0 size=       0kB time=00:00:00.00 bitrate=N/A    frame=   44 fps= 20 q=0.0 size=       0kB time=00:00:00.00 bitrate=N/A    frame=   57 fps= 21 q=21.0 size=      23kB time=-00:00:00.03 bitrate=N/A    frame=   69 fps= 21 q=21.0 size=     194kB time=00:00:00.36 bitrate=4340.0kbits/s    frame=   82 fps= 22 q=21.0 size=     352kB time=00:00:00.80 bitrate=3606.5kbits/s    frame=   96 fps= 22 q=21.0 size=     533kB time=00:00:01.26 bitrate=3449.4kbits/s    frame=  110 fps= 23 q=21.0 size=     677kB time=00:00:01.73 bitrate=3198.7kbits/s    frame=  123 fps= 23 q=21.0 size=     799kB time=00:00:02.16 bitrate=3022.4kbits/s    frame=  136 fps= 23 q=21.0 size=     907kB time=00:00:02.60 bitrate=2859.0kbits/s    frame=  149 fps= 23 q=21.0 size=    1020kB time=00:00:03.03 bitrate=2754.6kbits/s    frame=  163 fps= 23 q=21.0 size=    1171kB time=00:00:03.50 bitrate=2741.7kbits/s    frame=  171 fps= 23 q=21.0 size=    1230kB time=00:00:03.76 bitrate=2676.0kbits/s    frame=  183 fps= 23 q=21.0 size=    1337kB time=00:00:04.16 bitrate=2627.9kbits/s    frame=  195 fps= 23 q=21.0 size=    1442kB time=00:00:04.56 bitrate=2586.2kbits/s    frame=  208 fps= 23 q=21.0 size=    1565kB time=00:00:05.00 bitrate=2564.6kbits/s    frame=  220 fps= 23 q=21.0 size=    1669kB time=00:00:05.40 bitrate=2531.9kbits/s    frame=  234 fps= 23 q=21.0 size=    1820kB time=00:00:05.86 bitrate=2541.9kbits/s    frame=  248 fps= 23 q=21.0 size=    1954kB time=00:00:06.33 bitrate=2527.9kbits/s    frame=  262 fps= 24 q=21.0 size=    2085kB time=00:00:06.80 bitrate=2511.3kbits/s    frame=  275 fps= 24 q=21.0 size=    2202kB time=00:00:07.23 bitrate=2494.1kbits/s    frame=  289 fps= 24 q=21.0 size=    2322kB time=00:00:07.70 bitrate=2470.5kbits/s    frame=  301 fps= 20 q=21.0 size=    2443kB time=00:00:08.10 bitrate=2470.8kbits/s    frame=  314 fps= 20 q=21.0 size=    2593kB time=00:00:08.53 bitrate=2489.3kbits/s    frame=  326 fps= 20 q=21.0 size=    2693kB time=00:00:08.93 bitrate=2469.8kbits/s    frame=  339 fps= 21 q=21.0 size=    2830kB time=00:00:09.36 bitrate=2475.3kbits/s    frame=  353 fps= 21 q=21.0 size=    2974kB time=00:00:09.83 bitrate=2477.9kbits/s    frame=  366 fps= 21 q=21.0 size=    3129kB time=00:00:10.26 bitrate=2496.4kbits/s    frame=  380 fps= 21 q=21.0 size=    3271kB time=00:00:10.73 bitrate=2496.8kbits/s    frame=  394 fps= 21 q=21.0 size=    3412kB time=00:00:11.20 bitrate=2495.7kbits/s    frame=  408 fps= 21 q=21.0 size=    3543kB time=00:00:11.66 bitrate=2487.6kbits/s    frame=  409 fps= 18 q=21.0 size=    3556kB time=00:00:11.70 bitrate=2489.5kbits/s    